<svg xmlns="http://www.w3.org/2000/svg" viewBox="0 0 256 256" fill="currentColor">
  <path d="M 81.21,130.58 L 139.70,231.89 L 112.82,232.15 L 97.21,204.93 L 81.48,232.00 L 68.13,232.00 L 61.29,220.18 L 83.69,181.65 L 67.79,153.98 Z"/>
  <path d="M 102.37,88.77 L 43.87,190.08 L 30.22,166.93 L 45.98,139.80 L 14.67,139.71 L 8.00,128.15 L 14.81,116.31 L 59.38,116.45 L 75.40,88.84 Z"/>
  <path d="M 106.84,169.81 L 223.83,169.81 L 210.60,193.22 L 179.22,193.13 L 194.81,220.29 L 188.13,231.85 L 174.47,231.87 L 152.31,193.20 L 120.39,193.13 Z"/>
  <path d="M 174.79,125.42 L 116.30,24.11 L 143.18,23.85 L 158.79,51.07 L 174.52,24.00 L 187.87,24.00 L 194.71,35.82 L 172.31,74.35 L 188.21,102.02 Z"/>
  <path d="M 149.16,86.19 L 32.17,86.19 L 45.40,62.78 L 76.78,62.87 L 61.19,35.71 L 67.87,24.15 L 81.53,24.13 L 103.69,62.80 L 135.61,62.87 Z"/>
  <path d="M 153.63,167.23 L 212.13,65.92 L 225.78,89.07 L 210.02,116.20 L 241.33,116.29 L 248.00,127.85 L 241.19,139.69 L 196.62,139.55 L 180.60,167.16 Z"/>
</svg>
